<svg viewBox="0 0 24 24" width="24" height="24"><g><path d="M19.762 21.51c.408 0 .738.334.738.745 0 .412-.33.745-.738.745H4.238a.741.741 0 0 1-.738-.745c0-.41.33-.744.738-.744zm-3.56-17.775a2.166 2.166 0 0 1 1.63.72c.418.47.604 1.099.504 1.732C17.863 8.828 16.4 10.78 13.987 12c2.414 1.22 3.877 3.175 4.351 5.828a2.087 2.087 0 0 1-.507 1.716 2.164 2.164 0 0 1-1.624.72H7.795l-.185-.007a2.162 2.162 0 0 1-1.441-.713 2.094 2.094 0 0 1-.505-1.73C6.137 15.172 7.6 13.22 10.013 12c-2.321-1.172-3.763-3.024-4.29-5.513l-.059-.3-.022-.184a2.09 2.09 0 0 1 .526-1.547c.37-.416.89-.67 1.44-.714l.185-.007h8.41zM12 12.782l-.288.1c-2.65.968-4.146 2.684-4.593 5.182a.59.59 0 0 0 .147.485c.128.144.32.228.523.227h8.422a.697.697 0 0 0 .523-.227.583.583 0 0 0 .15-.47c-.45-2.512-1.947-4.229-4.596-5.196L12 12.782zm4.207-7.558H7.789a.697.697 0 0 0-.523.227.595.595 0 0 0-.154.377l.006.103.052.265c.526 2.451 2.101 4.11 4.83 5.022 2.83-.946 4.418-2.694 4.881-5.281a.589.589 0 0 0-.147-.486.7.7 0 0 0-.527-.227zM19.762 1c.408 0 .738.333.738.745a.742.742 0 0 1-.638.737l-.1.007H4.238a.741.741 0 0 1-.738-.744c0-.377.278-.689.638-.738l.1-.007h15.524z" fill="#262E66" fill-rule="evenodd"></path></g></svg>