<svg viewBox="0 0 24 24" width="24" height="24"><g><path d="M14.86 1c3.316 0 6.018 2.66 6.136 5.988l.004.228v15.035a.744.744 0 0 1-.74.749.743.743 0 0 1-.732-.647l-.007-.102V7.216c0-2.606-2.086-4.719-4.66-4.719-2.345 0-4.286 1.754-4.612 4.036 2.27.38 4.001 2.377 4.001 4.784a.744.744 0 0 1-.739.748h-8.1a.744.744 0 0 1-.739-.748c0-2.437 1.775-4.454 4.087-4.798C9.101 3.415 11.703 1 14.861 1zm-5.4 18.453l.118.006c.54.06.96.522.96 1.084 0 .602-.482 1.09-1.077 1.09a1.084 1.084 0 0 1-1.077-1.09c0-.602.482-1.09 1.077-1.09zm-6.202.114a1.068 1.068 0 0 1 1.15-.33l.114.045c.22.101.403.276.514.497a1.1 1.1 0 0 1 .065.831 1.08 1.08 0 0 1-.938.751 1.074 1.074 0 0 1-1.045-.59 1.101 1.101 0 0 1 .14-1.204zm12.406-.002c.283.335.34.81.142 1.204-.197.393-.61.627-1.044.592a1.08 1.08 0 0 1-.94-.75 1.095 1.095 0 0 1 .58-1.33l.109-.043.125-.033a1.07 1.07 0 0 1 1.028.36zm-6.203-5.58l.117.007c.54.059.96.521.96 1.083 0 .603-.482 1.09-1.077 1.09a1.084 1.084 0 0 1-1.077-1.09c0-.602.482-1.09 1.077-1.09zm4.53.381c.284.335.34.81.143 1.204-.198.393-.61.627-1.044.593a1.08 1.08 0 0 1-.94-.751 1.095 1.095 0 0 1 .58-1.33l.109-.042.125-.034a1.07 1.07 0 0 1 1.028.36zm-8.033-.36l.125.034.11.043c.493.225.75.796.58 1.329a1.08 1.08 0 0 1-.94.75c-.435.035-.847-.199-1.045-.592a1.101 1.101 0 0 1 .142-1.204 1.07 1.07 0 0 1 1.028-.36zM9.46 7.964c-1.511 0-2.786 1.026-3.183 2.427l-.045.177h6.456c-.336-1.49-1.654-2.604-3.228-2.604z" fill="#262E66" fill-rule="evenodd"></path></g></svg>