<svg viewBox="0 0 24 24" width="24" height="24"><g><path d="M18.505 3c1.136 0 2.043.96 2.043 2.127v4.124l.001 1.367c1.12.252 1.951 1.293 1.951 2.527v7.102a.748.748 0 0 1-.742.753.746.746 0 0 1-.736-.65l-.006-.103-.001-1.997H2.984v1.997a.75.75 0 0 1-.641.746l-.1.007a.746.746 0 0 1-.736-.65l-.007-.103v-7.102c0-1.234.831-2.275 1.95-2.527l.002-1.367V5.127C3.452 3.96 4.359 3 5.495 3zm1.518 9.065H3.977c-.541 0-.993.477-.993 1.08v3.6h18.032v-3.6c0-.603-.452-1.08-.993-1.08zM10.7 8.63H5.495c-.272 0-.507.22-.552.52l-.007.102-.001 1.309h6.322V9.25c0-.314-.207-.566-.47-.613l-.088-.008zm7.806 0h-5.204c-.272 0-.507.22-.551.52l-.008.102v1.309h6.322V9.25c0-.314-.208-.566-.47-.613l-.089-.008zm0-4.124H5.495c-.302 0-.56.272-.56.622v2.077c.133-.039.27-.065.413-.075l.147-.005h5.204c.496 0 .95.183 1.302.487.307-.266.692-.44 1.116-.479l.184-.008h5.204c.194 0 .382.028.56.08V5.127c0-.35-.258-.622-.56-.622z" fill="#262E66" fill-rule="evenodd"></path></g></svg>