<svg viewBox="0 0 24 24" width="24" height="24"><g><path d="M4.669 21.996a.745.745 0 0 1-.06.004h-.016l.076-.004zm-.053-14.44l.043.003.059.007a.776.776 0 0 1 .233.082.758.758 0 0 1 .062.038l.028.021a.058.058 0 0 1 .004.003l.009.007-.009-.007.019.016-.009-.008.011.009.038.034-.012-.01.024.022 1.852 1.851a.74.74 0 0 1-.964 1.12l-.083-.072-.588-.588v9.386l.588-.586a.74.74 0 0 1 .964-.072l.083.072a.74.74 0 0 1 .072.964l-.072.083-1.852 1.852a.745.745 0 0 1-.11.09l-.024.016-.024.015a.706.706 0 0 1-.228.083.74.74 0 0 1-.137.013h-.018a.744.744 0 0 1-.396-.126l-.042-.032-.068-.059-1.852-1.852a.74.74 0 0 1 .964-1.12l.084.073.586.586v-9.386l-.586.588a.74.74 0 0 1-.965.072l-.083-.072a.74.74 0 0 1-.072-.965l.072-.083 1.852-1.851a.754.754 0 0 1 .291-.18l.05-.015a.774.774 0 0 1 .082-.016l.124-.006zm-.494 14.276l.015.01.01.009-.011-.009-.014-.01zm-.035-.032l.033.029-.013-.01-.02-.019zm9.679-12.08a1.975 1.975 0 0 1 2.642.001l5.347 4.815a.74.74 0 0 1-.991 1.1l-1.234-1.11v4.264a1.975 1.975 0 0 1-1.827 1.97l-.147.005h-4.939a1.975 1.975 0 0 1-1.97-1.827l-.005-.148-.001-4.263-1.232 1.11a.74.74 0 0 1-.967.021l-.079-.076a.74.74 0 0 1 .055-1.046zm1.65 1.102a.494.494 0 0 0-.66 0l-2.633 2.371v5.597c0 .243.175.444.406.486l.088.008h4.939a.494.494 0 0 0 .485-.405l.008-.089v-5.597zM4.594 7.556l-.1.006.024-.003a.745.745 0 0 1 .047-.003h.029zm.028 0l.048.003H4.656l-.039-.003h.004zm-.028 0h.024-.024zm15.255-5.41l.083.071 1.852 1.852a.745.745 0 0 1 .217.507v.03l-.002.038-.002.015v-.015l-.001.024-.007.057a.785.785 0 0 1-.043.147l-.024.053a.717.717 0 0 1-.052.088l-.036.049-.004.004a.723.723 0 0 1-.027.03l-.019.02-1.852 1.852a.74.74 0 0 1-1.12-.964l.073-.083.586-.588h-9.386l.588.588a.74.74 0 0 1 .072.964l-.072.083a.74.74 0 0 1-.965.072l-.083-.072-1.851-1.852-.063-.07a.744.744 0 0 1-.154-.453v-.03l.001-.023.001-.01.001-.013.007-.048a.77.77 0 0 1 .068-.208l.014-.027a.758.758 0 0 1 .038-.062l.024-.033.063-.07 1.851-1.852a.74.74 0 0 1 1.12.964l-.072.084-.588.586h9.386l-.586-.586a.74.74 0 0 1-.072-.965l.072-.083a.74.74 0 0 1 .964-.072zm-12.11 1.96l-.024.028.013-.015.01-.012z" fill="#262E66" fill-rule="evenodd"></path></g></svg>