<svg viewBox="0 0 24 24" width="24" height="24"><g><path d="M7.377 6h7.199c.748 0 1.436.412 1.816 1.077l.077.146 1.462 3.065h1.587c1.86 0 3.381 1.527 3.477 3.448l.005.193v1.43c0 1.168-.867 2.125-1.964 2.206l-.151.006h-2.122C18.461 18.406 17.69 19 16.784 19s-1.677-.594-1.98-1.43H7.829C7.526 18.407 6.754 19 5.85 19s-1.677-.594-1.98-1.43h-.754c-1.117 0-2.032-.905-2.11-2.053L1 15.359v-1.43c0-1.775 1.215-3.254 2.823-3.576l.18-.03 1.482-3.1c.335-.7.995-1.159 1.733-1.217L7.378 6h7.198zm9.407 10.141a.633.633 0 0 0-.618.647c0 .357.277.647.618.647.342 0 .618-.29.618-.647a.633.633 0 0 0-.618-.647zm-10.935 0a.633.633 0 0 0-.618.647c0 .357.277.647.618.647.342 0 .618-.29.618-.647a.633.633 0 0 0-.618-.647zm-1.367-4.288c-1.046 0-1.904.847-1.98 1.921l-.005.155v1.43c0 .324.229.593.527.64l.091.006h.755c.302-.835 1.074-1.43 1.98-1.43.904 0 1.676.595 1.978 1.43h6.977c.302-.835 1.074-1.43 1.979-1.43s1.677.595 1.98 1.43h2.12c.311 0 .568-.239.612-.55l.007-.096v-1.43c0-1.094-.81-1.99-1.837-2.07l-.148-.006H4.482zm10.094-4.288H7.377a.61.61 0 0 0-.502.269l-.051.089-1.131 2.364h10.564L15.13 7.923a.616.616 0 0 0-.554-.358z" fill="#262E66" fill-rule="evenodd"></path></g></svg>