<svg viewBox="0 0 24 24" width="24" height="24">
    <g>
        <path 
            d="M10.148 22a1.975 1.975 0 0 1-1.975-1.975v-9.877c0-1.09.884-1.975 1.975-1.975h9.877c1.09 0 1.975.884 1.975 1.975v9.877c0 1.09-.884 1.975-1.975 1.975h-9.877zm-5.628-.004l.073.004h-.03a.745.745 0 0 1-.043-.004zm.073-16.292l.078.004.02.002a.695.695 0 0 1 .238.074.703.703 0 0 1 .084.05l.053.04.007.006-.007-.006.027.025-.02-.019.021.02.022.02 1.852 1.853a.74.74 0 0 1-.964 1.119L5.92 8.82l-.588-.587V19.47l.588-.586a.74.74 0 0 1 .964-.072l.083.072a.74.74 0 0 1 .072.964l-.072.083-1.852 1.852a.745.745 0 0 1-.8.164.729.729 0 0 1-.14-.075l-.035-.027-.072-.062-1.852-1.852a.74.74 0 0 1 .964-1.12l.084.073.586.586V8.233l-.586.587a.74.74 0 0 1-.965.072l-.083-.072a.74.74 0 0 1-.072-.964l.072-.083L4.069 5.92a.744.744 0 0 1 .192-.14l.064-.027a.75.75 0 0 1 .088-.028l.056-.012.047-.006a.777.777 0 0 1 .077-.004zM4.135 21.84l.006.004.006.006-.012-.01zm-.023-.018l.023.018-.014-.01-.009-.008zm7.765-2.292l-2.223-.001v.495c0 .272.221.494.494.494l1.728-.001v-.987zm1.851-9.877h-3.58a.494.494 0 0 0-.494.494v1.728H12a.74.74 0 0 1 .734.64l.007.101a.74.74 0 0 1-.64.734l-.101.007H9.654v4.691h2.963a.74.74 0 0 1 .734.64l.007.101v1.728h3.456v-4.814a.74.74 0 0 1 .641-.734l.1-.007c.41 0 .741.332.741.74v1.111h2.222V12.74h-3.58a.74.74 0 0 1-.734-.64l-.006-.1-.001-2.346h-.988v6.05a.74.74 0 0 1-.64.734l-.1.006h-3.086a.74.74 0 0 1-.1-1.474l.1-.007h2.345V9.654zm4.568 10.864h1.729a.494.494 0 0 0 .494-.493l-.001-1.729h-2.222v2.222zm1.729-10.864h-2.346v1.605h2.839v-1.11a.494.494 0 0 0-.493-.495zM8.82 2.217a.74.74 0 0 1 .072.964l-.072.084-.587.586H19.47l-.586-.586a.74.74 0 0 1-.072-.965l.072-.083a.74.74 0 0 1 .964-.072l.083.072 1.852 1.852a.745.745 0 0 1 .217.524l-.001.014v.01a.745.745 0 0 1-.003.052v-.01l-.008.066a.785.785 0 0 1-.043.147l-.024.053a.717.717 0 0 1-.052.088l-.036.049-.004.004a.723.723 0 0 1-.027.03l-.019.02-1.852 1.852a.74.74 0 0 1-1.12-.964l.073-.083.586-.588H8.233l.587.588a.74.74 0 0 1 .072.964l-.072.083a.74.74 0 0 1-.964.072l-.083-.072L5.92 5.116a.744.744 0 0 1-.14-.192l-.027-.064a.75.75 0 0 1-.05-.267v-.03l.001-.023.001-.01.002-.013.006-.048a.77.77 0 0 1 .114-.287l.043-.058.05-.055 1.852-1.852a.74.74 0 0 1 1.047 0zm-4.158 3.49l.01.001h-.001l-.009-.001zm-.07-.003l.054.002h.006l-.06-.002z" 
            fill="#262E66" 
            fill-rule="evenodd">
        </path>
    </g>
</svg>